<svg width="45" height="45" xmlns="http://www.w3.org/2000/svg" xmlns:xlink="http://www.w3.org/1999/xlink" xml:space="preserve" overflow="hidden"><g transform="translate(-432 -329)"><path d="M454.5 355.25C452.429 355.25 450.75 353.571 450.75 351.5 450.75 349.429 452.429 347.75 454.5 347.75 456.571 347.75 458.25 349.429 458.25 351.5 458.25 353.571 456.571 355.25 454.5 355.25ZM454.5 349.625C453.464 349.625 452.625 350.464 452.625 351.5 452.625 352.536 453.464 353.375 454.5 353.375 455.536 353.375 456.375 352.536 456.375 351.5 456.375 350.464 455.536 349.625 454.5 349.625Z" fill="#0070C0"/><path d="M470.906 350.562C470.415 342.231 463.769 335.585 455.438 335.094L455.438 332.281 453.562 332.281 453.562 335.094C445.231 335.585 438.585 342.231 438.094 350.562L435.281 350.562 435.281 352.438 438.094 352.438C438.585 360.769 445.231 367.415 453.562 367.906L453.562 370.719 455.438 370.719 455.438 367.906C463.769 367.415 470.415 360.769 470.906 352.438L473.719 352.438 473.719 350.562ZM463.95 352.438C463.5 356.939 459.939 360.5 455.438 360.95L455.438 357.125 453.562 357.125 453.562 360.95C449.061 360.5 445.5 356.939 445.05 352.438L448.875 352.438 448.875 350.562 445.05 350.562C445.5 346.061 449.061 342.5 453.562 342.05L453.562 345.875 455.438 345.875 455.438 342.05C459.939 342.5 463.5 346.061 463.95 350.562L460.125 350.562 460.125 352.438ZM453.562 337.906 453.562 340.17C448.026 340.635 443.633 345.026 443.166 350.562L440.906 350.562C441.388 343.782 446.782 338.388 453.562 337.906ZM440.906 352.438 443.17 352.438C443.635 357.974 448.026 362.367 453.562 362.834L453.562 365.094C446.782 364.612 441.388 359.218 440.906 352.438ZM455.438 365.094 455.438 362.834C460.975 362.369 465.369 357.975 465.834 352.438L468.094 352.438C467.612 359.218 462.218 364.612 455.438 365.094ZM465.834 350.562C465.369 345.025 460.975 340.631 455.438 340.166L455.438 337.906C462.218 338.388 467.612 343.782 468.094 350.562Z" fill="#0070C0"/></g></svg>